<svg width="371" height="100" viewBox="0 0 371 100" xmlns="http://www.w3.org/2000/svg"><g fill="#1273EB"><path d="M16.074 24.6c-2.513 2.6-4.696 5.467-6.416 8.533l-2.712-1.4C6.549 30 4.896 28.8 3.109 29c-1.918.2-3.307 2-3.043 3.933C.265 34.867 2.051 36.267 3.97 36c.397-.067.728-.133 1.058-.333l2.646 1.4c-1.455 3.266-2.513 6.666-3.109 10.2l4.366.8c1.322-7.667 4.96-14.667 10.385-20.334L16.074 24.6zm31.885-13.467c-.993 0-1.985.067-2.977.067l-.397-3.667a4.21 4.21 0 001.521-3.8C45.842 1.4 43.791-.2 41.476.067c-2.315.266-3.903 2.333-3.638 4.666C38.036 6.2 38.962 7.467 40.219 8l.397 3.667c-4.167.666-8.136 1.933-11.973 3.8l1.918 4c5.425-2.6 11.312-3.934 17.398-3.934 2.91 0 5.755.334 8.6.934l.925-4.334a45.77 45.77 0 00-9.525-1zM86.326 26c1.918-.267 3.307-2 3.042-3.933-.264-1.934-1.984-3.334-3.902-3.067-1.786.2-3.11 1.8-3.11 3.533l-2.447 2.134A44.434 44.434 0 0071.706 18l-2.315 3.733a39.56 39.56 0 0114.884 17.134l4.035-1.8C86.855 33.8 85.003 30.8 82.82 28l2.315-2.067c.397.134.794.134 1.19.067zM44.783 70.867c-2.249.133-4.498.2-6.747.2-5.093 0-10.055-.334-14.42-1.067a48.976 48.976 0 01-7.41-1.733c6.087 10.866 17.861 18.266 31.29 18.266 16.603 0 30.56-11.2 34.596-26.4-3.969 2.6-8.732 4.8-14.288 6.6C60.99 69 53.052 70.4 44.784 70.867z"/><path d="M47.959 20C28.51 20 12.635 35.6 12.635 54.8c0 2.467.264 5 .793 7.4 3.903 2.8 15.744 5.2 31.09 4.267 16.737-1 30.76-5.6 38.765-12.667 0-1.133-.133-2.267-.265-3.4C80.77 33.067 65.753 20 47.958 20zM35.39 58.133c-5.953 0-10.716-4.866-10.716-10.8 0-6 4.829-10.8 10.716-10.8 5.954 0 10.716 4.867 10.716 10.8.067 5.934-4.762 10.8-10.716 10.8zM62.91 52.8c-4.366 0-7.872-3.6-7.872-7.933 0-4.4 3.572-7.934 7.872-7.934 4.365 0 7.871 3.6 7.871 7.934.067 4.4-3.506 7.933-7.871 7.933zm77.99-21.867c-1.72-.666-4.697-1.8-8.005-1.4-3.175.4-4.895 2-4.895 5.867v5.067h12.965v10.066H128v31.934h-11.245V50.533h-7.806v-10h7.806v-5.2c0-9.866 5.225-16.266 14.95-16.266 3.704 0 6.747.733 9.26 1.8l-.066 10.066zm27.385 19.534a16.1 16.1 0 00-3.043-.267c-5.225 0-8.798 3.2-8.798 9.467v22.866H145.2v-42h10.849v4.6c2.646-3.933 6.615-5.733 11.708-5.733 2.381 0 4.895.733 6.35 2l-5.82 9.067zm44.519 11c0 1.266-.066 2.866-.198 3.8h-29.57c1.191 6.066 5.425 8.733 10.717 8.733 3.638 0 7.541-1.467 10.518-4l6.549 7.267c-4.763 4.4-10.783 6.4-17.729 6.4-12.766 0-21.63-8.734-21.63-22 0-13.2 8.599-22.2 21.101-22.2 11.973-.067 20.176 8.866 20.242 22zm-29.701-3.934h18.456c-1.059-5.4-4.234-8.4-9.063-8.4-5.358 0-8.4 3.2-9.393 8.4zm74.154 3.934c0 1.266-.066 2.866-.199 3.8H227.49c1.19 6.066 5.424 8.733 10.716 8.733 3.638 0 7.54-1.467 10.518-4l6.548 7.267c-4.762 4.4-10.782 6.4-17.728 6.4-12.767 0-21.63-8.734-21.63-22 0-13.2 8.599-22.2 21.101-22.2 11.973-.067 20.176 8.866 20.242 22zm-29.701-3.934h18.455c-1.058-5.4-4.233-8.4-9.062-8.4-5.292 0-8.401 3.2-9.393 8.4zm78.189 3.934c0 12.6-8.666 22.133-20.176 22.133-5.623 0-9.526-2.2-12.238-5.467v21.734h-11.18V40.533h10.982V45.2c2.712-3.4 6.681-5.733 12.436-5.733 11.51-.067 20.176 9.4 20.176 22zm-33.01 0c0 6.6 4.367 11.6 10.717 11.6 6.615 0 10.783-5.134 10.783-11.6 0-6.467-4.102-11.6-10.783-11.6-6.35.066-10.716 5-10.716 11.6zm51.069-34.734c0 4.067-3.11 7.2-7.21 7.2-4.036 0-7.145-3.133-7.145-7.2 0-4.066 3.11-7.266 7.144-7.266 4.035 0 7.21 3.2 7.21 7.266zm-1.522 55.734h-11.245v-42h11.245v42zm18.721-27l15.677-14.934h13.76l-20.243 19.734 20.308 22.2H356.68l-15.81-17v17h-11.245v-62.4h11.245v35.4z"/></g></svg>