<?xml version="1.0" encoding="iso-8859-1"?>
<!-- Generator: Adobe Illustrator 19.0.0, SVG Export Plug-In . SVG Version: 6.00 Build 0)  -->
<svg version="1.1" id="Capa_1" xmlns="http://www.w3.org/2000/svg" xmlns:xlink="http://www.w3.org/1999/xlink" x="0px" y="0px"
	 viewBox="0 0 511.99 511.99" style="enable-background:new 0 0 511.99 511.99;" xml:space="preserve">
<path style="fill:#E64B55;" d="M403.183,505.612c-52.609,0-95.409-42.801-95.409-95.409s42.8-95.408,95.409-95.408
	s95.408,42.8,95.408,95.408S455.791,505.612,403.183,505.612z M403.183,329.821c-44.323,0-80.382,36.059-80.382,80.382
	c0,44.323,36.059,80.382,80.383,80.382s80.382-36.059,80.382-80.383C483.564,365.88,447.505,329.821,403.183,329.821z"/>
<path style="fill:#50555A;" d="M403.183,322.307c48.544,0,87.895,39.352,87.895,87.895s-39.352,87.896-87.895,87.896
	s-87.895-39.352-87.895-87.896S354.639,322.307,403.183,322.307 M403.183,308.417c-56.125,0-101.787,45.661-101.787,101.787
	S347.058,511.99,403.183,511.99s101.787-45.661,101.787-101.787C504.968,354.078,459.308,308.417,403.183,308.417L403.183,308.417z"
	/>
<path style="fill:#373C41;" d="M403.182,308.417c-0.151,0-0.302,0.005-0.452,0.006v13.891c0.151-0.001,0.301-0.006,0.452-0.006
	c48.544,0,87.896,39.352,87.896,87.895s-39.352,87.896-87.896,87.896c-0.151,0-0.302-0.005-0.452-0.006v13.891
	c0.151,0.001,0.301,0.006,0.452,0.006c56.125,0,101.787-45.661,101.787-101.787C504.968,354.078,459.308,308.417,403.182,308.417z"
	/>
<path id="SVGCleanerId_0" style="fill:#B9B9BE;" d="M403.183,385.866c-13.42,0-24.337,10.918-24.337,24.336
	c0,13.42,10.918,24.337,24.337,24.337s24.337-10.918,24.337-24.337C427.519,396.783,416.602,385.866,403.183,385.866
	L403.183,385.866z"/>
<g>
	<path id="SVGCleanerId_0_1_" style="fill:#B9B9BE;" d="M403.183,385.866c-13.42,0-24.337,10.918-24.337,24.336
		c0,13.42,10.918,24.337,24.337,24.337s24.337-10.918,24.337-24.337C427.519,396.783,416.602,385.866,403.183,385.866
		L403.183,385.866z"/>
</g>
<path style="fill:#E64B55;" d="M108.807,505.612c-52.609,0-95.408-42.801-95.408-95.409s42.8-95.408,95.408-95.408
	s95.408,42.8,95.408,95.408S161.416,505.612,108.807,505.612z M108.807,329.821c-44.323,0-80.382,36.059-80.382,80.382
	c0,44.323,36.059,80.382,80.382,80.382s80.381-36.059,80.381-80.383C189.189,365.88,153.13,329.821,108.807,329.821z"/>
<path style="fill:#50555A;" d="M108.807,322.307c48.544,0,87.895,39.352,87.895,87.895s-39.352,87.896-87.895,87.896
	s-87.895-39.352-87.895-87.895S60.264,322.307,108.807,322.307 M108.807,308.417c-56.125,0-101.787,45.661-101.787,101.787
	S52.682,511.99,108.807,511.99s101.787-45.661,101.787-101.787C210.594,354.078,164.932,308.417,108.807,308.417L108.807,308.417z"
	/>
<path style="fill:#373C41;" d="M108.807,308.417c-0.151,0-0.302,0.005-0.452,0.006v13.891c0.151-0.001,0.301-0.006,0.452-0.006
	c48.544,0,87.896,39.352,87.896,87.895s-39.352,87.896-87.896,87.896c-0.151,0-0.302-0.005-0.452-0.006v13.891
	c0.151,0.001,0.301,0.006,0.452,0.006c56.125,0,101.787-45.661,101.787-101.787C210.594,354.078,164.932,308.417,108.807,308.417z"
	/>
<path style="fill:#B9B9BE;" d="M108.807,385.866c-13.419,0-24.337,10.918-24.337,24.336c0,13.42,10.917,24.337,24.337,24.337
	s24.337-10.918,24.337-24.337C133.144,396.783,122.226,385.866,108.807,385.866L108.807,385.866z"/>
<path style="fill:#55879B;" d="M227.209,419.268c-3.748,0-7.303-2.219-8.828-5.897l-59.003-142.284
	c-2.021-4.874,0.292-10.463,5.165-12.483c4.872-2.021,10.463,0.292,12.483,5.164l59.003,142.284
	c2.021,4.874-0.292,10.463-5.165,12.484C229.668,419.033,228.428,419.268,227.209,419.268z"/>
<path style="fill:#6C9BAA;" d="M232.178,419.653c-2.716,0-5.421-1.106-7.383-3.282c-3.678-4.076-3.354-10.361,0.721-14.039
	l110.162-99.386l-151.183,0.091l-66.137,96.737H232.6c5.49,0,9.94,4.45,9.94,9.94s-4.45,9.94-9.94,9.94H99.52
	c-3.687,0-7.071-2.041-8.792-5.301c-1.721-3.261-1.495-7.206,0.585-10.249l79.726-116.613c1.851-2.708,4.919-4.328,8.2-4.33
	l182.305-0.109c0.002,0,0.004,0,0.006,0c4.112,0,7.801,2.533,9.277,6.37c1.478,3.84,0.437,8.194-2.619,10.951L238.833,417.094
	C236.932,418.808,234.551,419.653,232.178,419.653z"/>
<path style="fill:#55879B;" d="M400.832,419.656c-4.151,0-8.023-2.621-9.42-6.773L328.715,226.58
	c-2.166-6.433,2.628-13.11,9.421-13.11h38.322c5.49,0,9.94,4.45,9.94,9.94c0,5.49-4.451,9.94-9.94,9.94h-24.49l58.285,173.193
	c1.751,5.203-1.048,10.84-6.25,12.591C402.952,419.488,401.883,419.656,400.832,419.656z"/>
<path style="fill:#373C41;" d="M386.399,223.41c0-5.49-4.451-9.94-9.94-9.94h-38.322c-6.788,0-11.589,6.672-9.421,13.11l2.278,6.77
	h45.465C381.948,233.35,386.399,228.9,386.399,223.41z"/>
<circle style="fill:#BA6746;" cx="259.308" cy="42.406" r="42.406"/>
<path style="fill:#823214;" d="M211.55,275.84h-75.375c-7.914,0-14.33-6.415-14.33-14.33s6.415-14.33,14.33-14.33h75.375
	c7.914,0,14.33,6.415,14.33,14.33S219.464,275.84,211.55,275.84z"/>
<path style="fill:#373C41;" d="M211.554,429.175c-4.739,0-9.223-2.841-11.091-7.509c-2.449-6.123,0.529-13.072,6.652-15.522
	l53.838-21.535c6.124-2.451,13.073,0.53,15.523,6.652c2.449,6.123-0.529,13.072-6.652,15.522l-53.839,21.535
	C214.53,428.9,213.029,429.175,211.554,429.175z"/>
<path style="fill:#BA6746;" d="M280.277,285.988c3.753-10.202-1.385-21.527-11.534-25.422l-46.775-17.955l38.281-101.262
	c5.643-14.779-0.343-30.792-13.368-35.765l-42.06-16.06c-13.026-4.974-28.16,2.975-33.803,17.754l-40.763,106.645
	c-6.65,17.398,2.051,36.894,19.441,43.563l86.496,33.174l-29.481,80.14c-3.791,10.304,1.49,21.73,11.794,25.521
	c2.264,0.832,4.582,1.228,6.861,1.228c8.094,0,15.702-4.982,18.659-13.022L280.277,285.988z"/>
<path style="fill:#3C5A73;" d="M246.91,252.183l-24.941-9.574l38.281-101.262c5.643-14.778-0.343-30.791-13.368-35.765l-42.06-16.06
	c-13.026-4.974-28.16,2.975-33.803,17.755l-40.763,106.645c-6.65,17.397,2.051,36.894,19.441,43.563l66.174,25.379L246.91,252.183z"
	/>
<path style="fill:#FA503C;" d="M128.619,232.265c-1.134-5.948-0.683-12.273,1.638-18.343l40.763-106.645
	c5.643-14.779,20.777-22.728,33.803-17.754l42.06,16.06c13.026,4.974,19.011,20.986,13.368,35.765l-38.281,101.262L128.619,232.265z
	"/>
<path style="fill:#BA6746;" d="M332.081,235.387c-1.252,0.092-2.532,0.046-3.824-0.15l-75.884-11.518
	c-5.643-0.857-10.483-4.48-12.892-9.654l-39.504-84.81c-3.974-8.533-0.28-18.671,8.254-22.646c8.531-3.975,18.671-0.28,22.645,8.254
	l35.645,76.528l66.85,10.146c9.307,1.413,15.706,10.102,14.294,19.408C346.449,228.958,339.837,234.817,332.081,235.387z"/>
<path style="fill:#FA735F;" d="M219.158,170.435l30.972-14.235l-19.254-41.337c-3.974-8.533-14.115-12.228-22.645-8.254
	c-8.533,3.974-12.228,14.113-8.254,22.646L219.158,170.435z"/>
<g>
</g>
<g>
</g>
<g>
</g>
<g>
</g>
<g>
</g>
<g>
</g>
<g>
</g>
<g>
</g>
<g>
</g>
<g>
</g>
<g>
</g>
<g>
</g>
<g>
</g>
<g>
</g>
<g>
</g>
</svg>
