<?xml version="1.0" encoding="iso-8859-1"?>
<!-- Generator: Adobe Illustrator 19.0.0, SVG Export Plug-In . SVG Version: 6.00 Build 0)  -->
<svg version="1.1" id="Capa_1" xmlns="http://www.w3.org/2000/svg" xmlns:xlink="http://www.w3.org/1999/xlink" x="0px" y="0px"
	 viewBox="0 0 496 496" style="enable-background:new 0 0 496 496;" xml:space="preserve">
<g>
	<g>
		<circle cx="288" cy="168" r="8"/>
	</g>
</g>
<g>
	<g>
		<circle cx="208" cy="168" r="8"/>
	</g>
</g>
<g>
	<g>
		<path d="M264,216c0,8.824-7.176,16-16,16c-8.824,0-16-7.176-16-16h-16c0,17.648,14.352,32,32,32s32-14.352,32-32H264z"/>
	</g>
</g>
<g>
	<g>
		<path d="M248,424c-13.232,0-24,10.768-24,24s10.768,24,24,24s24-10.768,24-24S261.232,424,248,424z M248,456c-4.416,0-8-3.584-8-8
			c0-4.416,3.584-8,8-8s8,3.584,8,8C256,452.416,252.416,456,248,456z"/>
	</g>
</g>
<g>
	<g>
		<path d="M416,450.224v-79.632c0-24.144-15.392-45.496-38.288-53.12l-10.8-3.6c13.544-4.32,26.36-10.824,37.888-19.48l8.264-6.192
			L405,281.744c-23.512-18.8-37-46.864-37-76.968V136h16v-8c0-16.728-10.344-31.048-24.96-37.008C354.688,73.816,331.136,0,248,0
			S141.312,73.816,136.96,90.992C122.344,96.952,112,111.272,112,128v8h16v68.776c0,30.112-13.488,58.168-37,76.976l-8.064,6.456
			L91.2,294.4c11.528,8.648,24.336,15.152,37.888,19.48l-10.8,3.6C95.392,325.104,80,346.456,80,370.592v79.632
			c-4.76,2.776-8,7.88-8,13.776v16c0,8.824,7.176,16,16,16h104h112h104c8.824,0,16-7.176,16-16v-16
			C424,458.104,420.76,453,416,450.224z M374.512,333.44C389.8,339.408,400,354.032,400,370.592V448h-40v-36.92
			C360,384.4,364.904,358.296,374.512,333.44z M386.992,287.208c-15.312,9.496-32.664,15.104-50.752,16.44L296,290.232v-16.576
			c17.68-11.56,30.912-29.304,36.712-50.136c7.44-0.888,14.2-3.76,19.816-8.168C355.032,242.76,367.168,268.128,386.992,287.208z
			 M248,347.312l35.024-35.024L257.96,400h-19.92l-25.064-87.712L248,347.312z M216,292.688v-10.8
			c9.936,3.896,20.704,6.112,32,6.112s22.064-2.216,32-6.112v10.8l-32,32L216,292.688z M248,272c-39.704,0-72-32.296-72-72v-64h144
			v64C320,239.704,287.704,272,248,272z M352,184c0,10.536-6.872,19.416-16.336,22.632c0.168-2.2,0.336-4.392,0.336-6.632v-38.528
			C345.288,164.784,352,173.584,352,184z M336,144.816V136h16v16.208C347.328,148.672,341.944,146.024,336,144.816z M152,104h160V88
			H154.32c6.704-21.52,29.272-72,93.68-72s86.976,50.48,93.68,72H328v16h16c10.432,0,19.328,6.688,22.632,16H129.368
			C132.672,110.688,141.568,104,152,104z M160,161.472V200c0,2.24,0.168,4.432,0.336,6.632C150.872,203.416,144,194.536,144,184
			C144,173.584,150.712,164.784,160,161.472z M144,152.2V136h16v8.808C154.056,146.024,148.672,148.664,144,152.2z M109.008,287.208
			c19.824-19.088,31.96-44.448,34.464-71.856c5.616,4.408,12.384,7.28,19.816,8.168c5.792,20.84,19.032,38.576,36.712,50.136v16.576
			l-40.24,13.416C141.672,302.32,124.32,296.704,109.008,287.208z M136,480H88v-16h48V480z M136,448H96v-77.408
			c0-16.56,10.2-31.184,25.488-37.152c9.6,24.856,14.512,50.96,14.512,77.64V448z M176,416v64h-24v-68.92
			c0-28.472-5.208-56.32-15.376-82.856l58.672-19.56L221.392,400H208v-8h-16v8C183.176,400,176,407.176,176,416z M212.32,480H192
			v-64h20.32c-7.632,8.504-12.32,19.696-12.32,32C200,460.304,204.688,471.496,212.32,480z M248,480c-17.648,0-32-14.352-32-32
			s14.352-32,32-32s32,14.352,32,32S265.648,480,248,480z M283.68,480c7.632-8.504,12.32-19.696,12.32-32s-4.688-23.496-12.32-32
			H304l0.016,64H283.68z M344,411.08V480h-24v-64c0-8.824-7.176-16-16-16v-8h-16v8h-13.392l26.096-91.336l58.672,19.56
			C349.208,354.76,344,382.608,344,411.08z M408,480h-48v-16h48V480z"/>
	</g>
</g>
<g>
</g>
<g>
</g>
<g>
</g>
<g>
</g>
<g>
</g>
<g>
</g>
<g>
</g>
<g>
</g>
<g>
</g>
<g>
</g>
<g>
</g>
<g>
</g>
<g>
</g>
<g>
</g>
<g>
</g>
</svg>
