<?xml version="1.0" encoding="iso-8859-1"?>
<!-- Generator: Adobe Illustrator 19.0.0, SVG Export Plug-In . SVG Version: 6.00 Build 0)  -->
<svg version="1.1" id="Capa_1" xmlns="http://www.w3.org/2000/svg" xmlns:xlink="http://www.w3.org/1999/xlink" x="0px" y="0px"
	 viewBox="0 0 511.999 511.999" style="enable-background:new 0 0 511.999 511.999;" xml:space="preserve">
<path style="fill:#EF4A6E;" d="M471.305,495.071c0,0-0.132-0.051-0.387-0.163c-4.09-1.841-39.668-19.096-39.668-64.157
	l-117.255-115.83c-5.494-20.328-3.805-56.038,46.668-60.148c3.144-0.265,6.481-0.397,10.011-0.397
	c60.24,0,119.35,4.843,131.854,93.509C510.892,407.209,489.15,464.844,471.305,495.071z"/>
<path style="fill:#D8254F;" d="M471.305,495.071c0,0-0.132-0.051-0.387-0.163c0.01-0.02,0.01-0.041,0.01-0.061
	c20.348-172.957-57.991-240.074-110.265-240.074c3.144-0.265,6.481-0.397,10.011-0.397c60.24,0,119.35,4.843,131.854,93.509
	C510.892,407.209,489.15,464.844,471.305,495.071z"/>
<path style="fill:#F9CE55;" d="M235.308,335.334l-112.708,34.924l-50.138,15.543c-27.646-69.273-4.061-113.002,74.602-113.002
	C225.717,272.8,235.308,308.334,235.308,335.334z"/>
<path style="fill:#E2A11E;" d="M122.601,370.258l-50.138,15.543c-27.646-69.273-4.061-113.002,74.602-113.002
	C119.102,280.77,101.388,339.149,122.601,370.258z"/>
<path style="fill:#FCD2BE;" d="M235.308,335.334v62.3c0,40.747-33.046,73.793-73.805,73.793c-6.022,0-11.88-0.716-17.48-2.09
	c-29.125-7.067-51.488-31.414-55.62-61.584c-3.275-1.151-6.351-3.029-8.981-5.659c-9.297-9.286-9.297-24.358,0-33.644
	c2.442-2.442,5.271-4.25,8.288-5.4c8.499-3.264,18.512-1.467,25.369,5.388c0-4.555,2.548-13.652,8.487-22.962
	C135.854,323.091,169.804,299.541,235.308,335.334z"/>
<path style="fill:#FAB998;" d="M144.024,469.337c-29.125-7.067-51.488-31.414-55.62-61.584c-3.275-1.151-6.351-3.029-8.981-5.659
	c-9.297-9.286-9.297-24.358,0-33.644c2.442-2.442,5.271-4.25,8.288-5.4c8.499-3.264,18.512-1.467,25.369,5.388
	c0-4.555,2.548-13.652,8.487-22.962C114.876,387.761,115.92,451.106,144.024,469.337z"/>
<path style="fill:#E2A11E;" d="M61.58,342.362c-36.603-7.028-68.3,17.624-47.169,102.146c0,0,36.151-42.998,49.772-84.89"/>
<path style="fill:#00C7A9;" d="M245.652,65.756H54.531c-12.118,0-21.942,9.824-21.942,21.942v96.509
	c0,12.118,9.824,21.942,21.942,21.942h107.768v39.676l35.387-39.676h47.966c12.118,0,21.942-9.824,21.942-21.942V87.7
	C267.594,75.581,257.77,65.756,245.652,65.756z"/>
<path style="fill:#F9CE55;" d="M248.405,16.925h191.121c12.118,0,21.942,9.824,21.942,21.942v96.509
	c0,12.118-9.824,21.942-21.942,21.942H331.757v39.676l-35.387-39.676h-47.965c-12.118,0-21.942-9.824-21.942-21.942V38.867
	C226.462,26.749,236.286,16.925,248.405,16.925z"/>
<path style="fill:#FCD2BE;" d="M464.927,379.562c-2.547,2.547-5.524,4.365-8.696,5.479c-4.001,29.212-25.655,52.786-53.855,59.629
	c-5.422,1.33-11.094,2.024-16.925,2.024c-39.465,0-71.462-31.997-71.462-71.45v-60.322c0,0,31.679,1.136,44.182-11.366
	c18.152,23.563,41.739,26.848,57.379,25.824c0-0.011,0-0.011,0-0.011c10.014-0.659,16.777-3.081,16.777-3.081v20.699l0.011-0.011
	c6.638-6.638,16.334-8.377,24.563-5.217c2.921,1.114,5.661,2.864,8.025,5.228C473.93,355.977,473.93,370.571,464.927,379.562z"/>
<path style="fill:#FAB998;" d="M464.927,379.562c-2.547,2.547-5.524,4.365-8.696,5.479c-4.001,29.212-25.655,52.786-53.855,59.629
	c37.111-20.358,13.493-114.029,13.174-115.292c0-0.011,0-0.011,0-0.011c10.014-0.659,16.777-3.081,16.777-3.081v20.699l0.011-0.011
	c6.638-6.638,16.334-8.377,24.563-5.217c2.921,1.114,5.661,2.864,8.025,5.228C473.93,355.977,473.93,370.571,464.927,379.562z"/>
<path d="M179.953,380.389v-12.207c0-4.214-3.416-7.63-7.63-7.63c-4.214,0-7.63,3.416-7.63,7.63v12.207c0,4.214,3.416,7.63,7.63,7.63
	C176.537,388.02,179.953,384.603,179.953,380.389z"/>
<path d="M196.428,368.183v12.207c0,4.214,3.416,7.63,7.63,7.63s7.63-3.416,7.63-7.63v-12.207c0-4.214-3.416-7.63-7.63-7.63
	S196.428,363.969,196.428,368.183z"/>
<path d="M152.095,414.594c-2.091-3.66-6.752-4.931-10.411-2.84c-3.659,2.091-4.93,6.751-2.84,10.411
	c7.338,12.843,19.935,20.097,36.427,20.978c0.138,0.007,0.276,0.011,0.413,0.011c4.027,0,7.396-3.154,7.613-7.224
	c0.225-4.208-3.004-7.801-7.212-8.026C164.871,427.305,156.799,422.827,152.095,414.594z"/>
<path d="M70.743,353.709c-3.863-20.5-1.385-36.954,7.364-48.901c2.49-3.4,1.752-8.175-1.648-10.664
	c-3.399-2.49-8.175-1.753-10.664,1.648c-11.344,15.49-14.725,35.927-10.048,60.743c0.69,3.665,3.893,6.219,7.49,6.219
	c0.468,0,0.944-0.044,1.421-0.133C68.799,361.84,71.523,357.85,70.743,353.709z"/>
<path d="M239.2,341.897c2.318-1.375,3.738-3.869,3.738-6.563c0-47.213-31.362-70.163-95.878-70.163
	c-24.501,0-44.613,4.139-59.779,12.301c-3.71,1.997-5.1,6.624-3.102,10.336c1.997,3.71,6.623,5.099,10.336,3.102
	c12.918-6.952,30.597-10.478,52.545-10.478c59.57,0,75.847,20.395,79.613,41.989c-43.464-20.158-71.886-13.437-88.491-3.587
	c-17.048,10.111-26.223,25.6-30.226,37.269c-7.228-2.898-15.432-3.074-22.964-0.182c-4.108,1.567-7.797,3.967-10.961,7.131
	c-5.941,5.932-9.211,13.824-9.211,22.221c0,8.397,3.271,16.288,9.208,22.218c2.246,2.246,4.763,4.11,7.519,5.57
	c7.285,37.914,40.919,65.996,79.958,65.996c44.904,0,81.434-36.526,81.434-81.423v-35.628c0-4.214-3.416-7.63-7.63-7.63
	c-4.214,0-7.63,3.416-7.63,7.63v35.628c0,36.482-29.685,66.162-66.173,66.162c-32.904,0-61.08-24.538-65.54-57.079
	c-0.389-2.835-2.331-5.214-5.031-6.163c-2.311-0.812-4.368-2.108-6.118-3.858c-3.053-3.05-4.735-7.106-4.735-11.423
	c0-4.317,1.682-8.373,4.738-11.426c1.637-1.637,3.525-2.87,5.627-3.672c5.961-2.288,12.726-0.851,17.25,3.672
	c2.98,2.98,7.805,2.974,10.785-0.006c1.487-1.486,2.23-3.437,2.232-5.387c0-0.051,0-0.101-0.001-0.152
	c0.113-4.983,6.226-25.056,25.256-36.342c21.098-12.514,50.727-9.031,85.682,10.071C234.012,343.322,236.882,343.272,239.2,341.897z
	"/>
<path d="M54.302,383.738c-3.719-1.986-8.341-0.582-10.326,3.136c-8.516,15.942-18.431,30.366-25.6,40.082
	c-8.077-43.53-0.221-71.267,22.298-76.974c4.085-1.036,6.557-5.186,5.522-9.27c-1.035-4.086-5.19-6.558-9.27-5.522
	c-11.34,2.873-26.312,11.061-33.241,33.745c-5.85,19.151-4.732,45.201,3.325,77.427c0.695,2.782,2.891,4.938,5.684,5.585
	c0.571,0.131,1.147,0.196,1.717,0.196c2.224,0,4.373-0.975,5.841-2.721c0.853-1.015,21.073-25.193,37.185-55.356
	C59.423,390.345,58.019,385.722,54.302,383.738z"/>
<path d="M267.594,176.578c-4.214,0-7.63,3.416-7.63,7.63c0,7.891-6.421,14.312-14.312,14.312h-47.966
	c-2.175,0-4.247,0.929-5.694,2.552l-22.062,24.736v-19.657c0-4.214-3.416-7.63-7.63-7.63H54.531
	c-7.892,0-14.312-6.421-14.312-14.312V87.7c0-7.892,6.421-14.312,14.312-14.312h145.919c4.214,0,7.63-3.416,7.63-7.63
	s-3.416-7.63-7.63-7.63H54.531c-16.307,0-29.573,13.267-29.573,29.573v96.509c0,16.306,13.267,29.573,29.573,29.573h100.138v32.046
	c0,3.165,1.954,6.003,4.913,7.13c0.885,0.338,1.805,0.501,2.716,0.501c2.133,0,4.219-0.896,5.696-2.552l33.111-37.125h44.547
	c16.307,0,29.573-13.267,29.573-29.573C275.225,179.994,271.808,176.578,267.594,176.578z"/>
<path d="M331.758,204.625c0.912,0,1.831-0.164,2.716-0.501c2.958-1.127,4.913-3.965,4.913-7.13v-32.046h100.139
	c16.306,0,29.573-13.267,29.573-29.573v-20.276c0-4.214-3.416-7.63-7.63-7.63c-4.214,0-7.63,3.416-7.63,7.63v20.276
	c0,7.891-6.421,14.312-14.312,14.312H331.757c-4.214,0-7.63,3.416-7.63,7.63v19.657l-22.062-24.736
	c-1.448-1.623-3.519-2.552-5.694-2.552h-47.965c-7.892,0-14.312-6.421-14.312-14.312v-96.51c0-7.892,6.421-14.312,14.312-14.312
	h191.121c7.891,0,14.312,6.421,14.312,14.312v51.816c0,4.214,3.416,7.63,7.63,7.63c4.214,0,7.63-3.416,7.63-7.63V38.867
	c0-16.307-13.267-29.573-29.573-29.573H248.405c-16.307,0-29.573,13.267-29.573,29.573v96.509c0,16.306,13.267,29.573,29.573,29.573
	h44.547l33.111,37.125C327.539,203.729,329.625,204.625,331.758,204.625z"/>
<path d="M421.791,47.953h-86.033c-4.214,0-7.63,3.416-7.63,7.63s3.416,7.63,7.63,7.63h86.033c4.214,0,7.63-3.416,7.63-7.63
	S426.007,47.953,421.791,47.953z"/>
<path d="M266.138,63.214h44.183c4.214,0,7.63-3.416,7.63-7.63s-3.416-7.63-7.63-7.63h-44.183c-4.214,0-7.63,3.416-7.63,7.63
	S261.924,63.214,266.138,63.214z"/>
<path d="M421.791,79.237h-26.518c-4.214,0-7.63,3.416-7.63,7.63c0,4.214,3.416,7.63,7.63,7.63h26.518c4.214,0,7.63-3.416,7.63-7.63
	C429.422,82.653,426.007,79.237,421.791,79.237z"/>
<path d="M266.138,94.498h103.698c4.214,0,7.63-3.416,7.63-7.63c0-4.214-3.416-7.63-7.63-7.63H266.138c-4.214,0-7.63,3.416-7.63,7.63
	C258.508,91.081,261.924,94.498,266.138,94.498z"/>
<path d="M266.138,125.781h108.276c4.214,0,7.63-3.416,7.63-7.63c0-4.214-3.416-7.63-7.63-7.63H266.138
	c-4.214,0-7.63,3.416-7.63,7.63C258.508,122.364,261.924,125.781,266.138,125.781z"/>
<path d="M69.791,108.995h44.183c4.214,0,7.63-3.416,7.63-7.63c0-4.214-3.416-7.63-7.63-7.63H69.791c-4.214,0-7.63,3.416-7.63,7.63
	C62.16,105.578,65.577,108.995,69.791,108.995z"/>
<path d="M188.748,108.995c4.214,0,7.63-3.416,7.63-7.63c0-4.214-3.416-7.63-7.63-7.63h-44.183c-4.214,0-7.63,3.416-7.63,7.63
	c0,4.214,3.416,7.63,7.63,7.63H188.748z"/>
<path d="M69.791,125.017c-4.214,0-7.63,3.416-7.63,7.63c0,4.214,3.416,7.63,7.63,7.63h133.711c4.214,0,7.63-3.416,7.63-7.63
	c0-4.214-3.416-7.63-7.63-7.63C203.502,125.017,69.791,125.017,69.791,125.017z"/>
<path d="M117.028,156.3c-4.214,0-7.63,3.416-7.63,7.63c0,4.214,3.416,7.63,7.63,7.63h61.038c4.214,0,7.63-3.416,7.63-7.63
	c0-4.214-3.416-7.63-7.63-7.63H117.028z"/>
<path d="M69.791,156.3c-4.214,0-7.63,3.416-7.63,7.63c0,4.214,3.416,7.63,7.63,7.63h21.801c4.214,0,7.63-3.416,7.63-7.63
	c0-4.214-3.416-7.63-7.63-7.63H69.791z"/>
<path d="M382.612,358.546v-11.819c0-4.214-3.416-7.63-7.63-7.63s-7.63,3.416-7.63,7.63v11.819c0,4.214,3.416,7.63,7.63,7.63
	S382.612,362.76,382.612,358.546z"/>
<path d="M351.883,358.546v-11.819c0-4.214-3.416-7.63-7.63-7.63c-4.214,0-7.63,3.416-7.63,7.63v11.819c0,4.214,3.416,7.63,7.63,7.63
	C348.467,366.176,351.883,362.76,351.883,358.546z"/>
<path d="M364.112,412.336c0.217,4.07,3.585,7.223,7.613,7.223c0.137,0,0.276-0.003,0.413-0.011
	c16.054-0.858,28.319-7.923,35.468-20.433c2.091-3.659,0.82-8.32-2.84-10.411c-3.658-2.091-8.319-0.82-10.411,2.84
	c-4.512,7.896-12.262,12.191-23.032,12.766C367.117,404.535,363.888,408.128,364.112,412.336z"/>
<path d="M510.085,346.817c-6.026-42.732-23.064-70.772-52.086-85.72c-25.718-13.247-57.24-14.355-87.323-14.355
	c-26.696,0-45.789,7.256-56.746,21.568c-13.631,17.804-9.647,39.919-7.301,48.602c0.873,3.23,3.749,5.515,7.092,5.635
	c0.351,0.013,8.685,0.293,18.694-1.058c10.136-1.367,18.36-3.891,24.566-7.527c16.212,17.507,35.278,22.281,48.993,23.069
	c7.275,0.418,13.755-0.222,18.73-1.07v11.025c0,3.086,1.865,5.863,4.716,7.043c2.853,1.182,6.14,0.523,8.321-1.659
	c4.302-4.301,10.753-5.67,16.449-3.483c1.988,0.758,3.787,1.933,5.351,3.498c2.911,2.907,4.514,6.775,4.514,10.89
	c0,4.114-1.603,7.982-4.517,10.893c-1.664,1.664-3.625,2.902-5.829,3.675c-2.7,0.948-4.642,3.328-5.031,6.163
	c-4.303,31.389-31.481,55.058-63.22,55.058c-35.197,0-63.831-28.629-63.831-63.82v-34.498c0-4.214-3.416-7.63-7.63-7.63
	s-7.63,3.416-7.63,7.63v34.498c0,43.605,35.481,79.081,79.092,79.081c37.878,0,70.516-27.217,77.635-63.985
	c2.649-1.416,5.07-3.216,7.232-5.379c5.797-5.789,8.99-13.492,8.991-21.687c0-8.195-3.193-15.897-8.987-21.684
	c-3.092-3.092-6.692-5.434-10.685-6.956c-6.42-2.464-13.332-2.65-19.679-0.78v-7.567c0-2.473-1.212-4.79-3.229-6.22
	s-4.618-1.791-6.951-0.972c-1.607,0.565-39.679,13.422-65.564-20.196c-1.339-1.74-3.362-2.818-5.553-2.96
	c-2.197-0.139-4.336,0.666-5.889,2.219c-6.191,6.191-21.435,8.696-32.657,9.113c-2.695-16.124,3.082-25.969,5.927-29.686
	c7.917-10.341,22.933-15.583,44.629-15.583c28.211,0,57.652,0.978,80.334,12.661c24.298,12.516,38.678,36.815,43.963,74.285
	c7.168,50.824-8.457,102.226-26.624,135.841c-7.649-4.842-20.699-15.409-26.47-33.701c-1.268-4.019-5.553-6.25-9.573-4.981
	c-4.019,1.268-6.25,5.553-4.981,9.573c10.583,33.551,39.83,45.937,41.07,46.448c0.947,0.39,1.932,0.576,2.904,0.576
	c2.631,0,5.165-1.365,6.573-3.752C498.815,463.481,518.274,404.887,510.085,346.817z"/>
<g>
</g>
<g>
</g>
<g>
</g>
<g>
</g>
<g>
</g>
<g>
</g>
<g>
</g>
<g>
</g>
<g>
</g>
<g>
</g>
<g>
</g>
<g>
</g>
<g>
</g>
<g>
</g>
<g>
</g>
</svg>
