<svg id="Layer_1" enable-background="new 0 0 256 256" height="512" viewBox="0 0 256 256" width="512" xmlns="http://www.w3.org/2000/svg"><g><g><path d="m171.96 137.727v100.051h-22.967c-1.079 0-1.982-.82-2.085-1.894l-8.515-88.694 11.519-22.193z" fill="#e0ebfc"/></g><g><path d="m152.22 237.778-1.76 11.609c-.288 1.901 1.183 3.613 3.106 3.613h33.933c1.157 0 2.095-.938 2.095-2.095v-2.229c0-1.995-1.186-3.8-3.019-4.591l-14.614-6.308h-19.741z" fill="#f9cfcf"/></g><g><path d="m171.96 239.778h-22.967c-2.12 0-3.872-1.592-4.076-3.703l-8.515-88.695c-.036-.384.038-.77.216-1.112l11.519-22.192c.252-.484.69-.845 1.215-.999.522-.153 1.088-.085 1.561.188l22.048 12.729c.619.357 1 1.018 1 1.732v100.051c-.001 1.106-.897 2.001-2.001 2.001zm-31.52-92.191 8.459 88.106c.004.048.045.085.094.085h20.967v-96.896l-19.236-11.106z" fill="#3762cc"/></g><g><path d="m187.498 255h-33.933c-1.5 0-2.922-.652-3.899-1.79s-1.409-2.641-1.184-4.124l1.76-11.608c.148-.978.988-1.7 1.978-1.7h19.74c.272 0 .542.056.793.164l14.614 6.308c2.566 1.108 4.226 3.63 4.226 6.427v2.229c0 2.257-1.837 4.094-4.095 4.094zm-33.559-15.222-1.502 9.909c-.068.451.135.767.263.916.127.148.409.397.865.397h33.933c.052 0 .095-.042.095-.095v-2.229c0-1.198-.711-2.279-1.811-2.754l-14.235-6.145h-17.608z" fill="#3762cc"/></g><g><path d="m135.181 103.029-69.184-59.122-16.384 15.821c-.832.804-.855 2.13-.052 2.962l68.046 70.464 21.135 11.843 9.942-22.942z" fill="#e0ebfc"/></g><g><path d="m55.687 53.863-9.891-6.031c-2.422-1.477-4.413-3.565-5.772-6.055l-6.704-12.281c-1.309-2.398-.555-5.399 1.732-6.893l3.602-2.353c1.904-1.244 4.393-1.116 6.159.315l11.238 9.103c.398.323.747.702 1.035 1.126l8.911 13.113z" fill="#f9cfcf"/></g><g><path d="m138.743 146.997c-.339 0-.676-.086-.978-.255l-21.135-11.843c-.17-.095-.326-.215-.461-.355l-68.046-70.465c-1.568-1.624-1.523-4.221.101-5.79l16.384-15.821c.741-.715 1.905-.751 2.688-.082l69.185 59.122c.125.107.236.229.331.363l13.505 19.026c.405.57.482 1.311.204 1.953l-9.942 22.942c-.225.519-.659.918-1.195 1.1-.209.07-.425.105-.641.105zm-19.901-15.444 18.947 10.617 8.613-19.875-12.709-17.905-67.615-57.78-15.076 14.557c-.037.037-.039.097-.002.134z" fill="#3762cc"/></g><g><path d="m55.687 55.863c-.358 0-.718-.096-1.041-.292l-9.891-6.03c-2.718-1.657-4.961-4.01-6.487-6.804l-6.705-12.281c-1.797-3.291-.745-7.475 2.394-9.526l3.602-2.353c2.641-1.726 6.061-1.55 8.512.435l11.238 9.103c.551.446 1.032.97 1.431 1.556l8.911 13.114c.547.805.435 1.887-.265 2.563l-10.31 9.956c-.383.367-.884.559-1.389.559zm-14.169-34.467c-.613 0-1.229.175-1.771.529l-3.602 2.353c-1.404.917-1.875 2.789-1.071 4.26l6.705 12.281c1.189 2.179 2.939 4.014 5.058 5.306l8.572 5.226 7.987-7.713-7.965-11.72c-.178-.262-.394-.497-.64-.696l-11.237-9.102c-.593-.481-1.313-.724-2.036-.724z" fill="#3762cc"/></g><g><path d="m155.244 54.554-57.318-40.647-12.252 16.707 55.475 48.354z" fill="#e0ebfc"/></g><g><path d="m126.231 114.41h51.977v11.064h-51.977z" fill="#4671c6" transform="matrix(.866 .5 -.5 .866 80.365 -60.041)"/></g><g><path d="m149.912 124.997-22.965-13.259-14.882 14.882 16.053 32.634c1.028 2.09 3.314 3.25 5.608 2.845l38.234-6.742v-17.631z" fill="#e0ebfc"/></g><g><path d="m207.209 84.556 15.692 47.825c1.491 4.544-1.118 9.412-5.727 10.687l-39.057 10.805-5.169-24.361 20.391-4.514-2.647-11.834z" fill="#e0ebfc"/></g><g><path d="m97.926 13.907-12.858-10.224c-1.393-1.108-3.428-.838-4.484.594l-7.133 9.672c-1.038 1.407-.727 3.391.691 4.413l13.42 9.675z" fill="#f9cfcf"/></g><g><path d="m171.958 139.728c-.339 0-.683-.086-.998-.269l-45.013-25.988c-.459-.265-.794-.702-.932-1.214s-.065-1.058.2-1.518l5.532-9.582c.553-.956 1.772-1.287 2.732-.732l45.013 25.988c.459.265.795.702.932 1.214.138.512.065 1.058-.199 1.518l-5.532 9.582c-.372.642-1.044 1.001-1.735 1.001zm-42.278-28.721 41.548 23.988 3.532-6.118-41.548-23.988z" fill="#3762cc"/></g><g><path d="m141.149 80.968c-.479 0-.947-.172-1.314-.492l-55.475-48.354c-.784-.683-.914-1.853-.299-2.69l12.252-16.707c.646-.881 1.879-1.081 2.77-.449l57.319 40.647c.842.597 1.091 1.737.575 2.631l-14.095 24.414c-.299.518-.814.875-1.403.973-.11.018-.22.027-.33.027zm-52.775-50.654 52.258 45.55 11.97-20.732-54.227-38.455z" fill="#3762cc"/></g><g><path d="m132.832 164.178c-2.718 0-5.282-1.547-6.508-4.041l-16.053-32.634c-.378-.768-.225-1.692.38-2.297l14.882-14.882c.641-.64 1.631-.77 2.414-.318l45.013 25.988c.619.357 1 1.018 1 1.732v17.631c0 .971-.697 1.801-1.652 1.97l-38.233 6.742c-.416.074-.831.109-1.243.109zm-18.34-37.156 15.421 31.35c.632 1.285 2.06 2.007 3.466 1.758l36.581-6.451v-14.798l-42.684-24.644z" fill="#3762cc"/></g><g><path d="m178.118 155.873c-.363 0-.723-.099-1.038-.291-.472-.287-.804-.755-.918-1.294l-5.169-24.361c-.229-1.074.452-2.13 1.523-2.368l18.434-4.081-2.209-9.878c-.109-.489-.03-1.002.22-1.437l16.516-28.606c.396-.684 1.159-1.07 1.938-.989.785.081 1.448.616 1.694 1.366l15.692 47.825c.894 2.722.64 5.612-.713 8.137-1.354 2.525-3.619 4.337-6.381 5.101l-39.057 10.805c-.173.047-.353.071-.532.071zm-2.801-24.837 4.316 20.343 37.008-10.238c1.697-.469 3.09-1.583 3.922-3.135.831-1.552.986-3.328.438-5.001l-14.297-43.573-13.889 24.056 2.477 11.073c.115.519.02 1.062-.265 1.51s-.736.765-1.255.879z" fill="#3762cc"/></g><g><path d="m87.561 30.038c-.405 0-.814-.123-1.168-.377l-13.42-9.675c-1.123-.81-1.859-2.008-2.073-3.375s.121-2.733.942-3.848l7.133-9.672c.835-1.134 2.065-1.86 3.462-2.045 1.395-.186 2.773.196 3.876 1.073l12.857 10.222c.841.668 1.003 1.882.368 2.748l-10.363 14.132c-.391.534-.999.817-1.614.817zm-4.447-25.038c-.058 0-.109.004-.151.01-.18.024-.519.114-.769.454l-7.134 9.672c-.183.248-.257.551-.209.854.047.303.211.569.46.749l11.812 8.515 8.052-10.98-11.351-9.025c-.254-.202-.519-.249-.71-.249z" fill="#3762cc"/></g><g><path d="m174.593 137.261-15.045 4.544c-1.045.316-1.672 1.38-1.442 2.447l2.383 11.036c.241 1.118 1.335 1.836 2.457 1.612l15.171-3.028z" fill="#f9cfcf"/></g><g><path d="m142.81 120.897-33.576 30.718c-.895.819-.909 2.225-.031 3.062l4.67 4.447c.832.792 2.147.767 2.947-.057l33.092-34.07z" fill="#4671c6"/></g><g><path d="m149.912 124.997-2.699 48.569c-.067 1.201.889 2.211 2.091 2.211h6.3c1.157 0 2.095-.938 2.095-2.095v-44.189z" fill="#4671c6"/></g><g><path d="m115.316 161.698c-1.017 0-2.034-.374-2.823-1.125l-4.67-4.447c-.819-.78-1.282-1.876-1.271-3.007.012-1.13.497-2.216 1.331-2.979l33.576-30.718c.643-.588 1.594-.693 2.35-.256l7.103 4.101c.534.308.896.846.98 1.457s-.116 1.227-.546 1.669l-33.092 34.07c-.798.821-1.868 1.235-2.938 1.235zm-4.733-8.469 4.67 4.447c.038.036.097.035.133-.002l31.303-32.229-3.61-2.084-32.494 29.729-1.381 1.586z" fill="#3762cc"/></g><g><path d="m175.55 131.014-44.709-25.813c-2.004-1.157-2.69-3.719-1.533-5.722l25.937-44.924 51.965 30.002-25.937 44.924c-1.157 2.003-3.719 2.689-5.723 1.533z" fill="#e0ebfc"/></g><g><path d="m177.635 133.578c-1.073 0-2.131-.281-3.085-.832l-44.709-25.813c-2.956-1.706-3.972-5.499-2.265-8.454l25.936-44.924c.266-.459.702-.794 1.215-.932s1.059-.066 1.518.2l51.965 30.002c.957.552 1.284 1.775.732 2.732l-25.937 44.924c-.826 1.432-2.161 2.456-3.759 2.883-.532.143-1.074.214-1.611.214zm-1.085-4.296c.506.292 1.097.369 1.662.219.564-.151 1.036-.514 1.328-1.02l24.937-43.192-48.5-28.002-24.937 43.192c-.293.506-.37 1.096-.219 1.661.151.564.514 1.037 1.02 1.329z" fill="#3762cc"/></g><g><path d="m166.831 49.853v35.27l20.105-12.252v-23.018z" fill="#f9cfcf"/></g><g><path d="m162.545 158.94c-1.887 0-3.599-1.323-4.01-3.23l-2.384-11.036c-.447-2.071.791-4.172 2.819-4.784l15.045-4.544c.535-.161 1.114-.092 1.597.193.481.285.821.759.938 1.306l3.524 16.612c.111.523.009 1.068-.286 1.515-.294.446-.754.757-1.278.861l-15.171 3.027c-.266.055-.531.08-.794.08zm10.544-19.135-12.962 3.915c-.047.014-.076.063-.065.11l2.384 11.036c.011.051.051.085.111.073l13.185-2.631z" fill="#3762cc"/></g><g><path d="m155.604 177.777h-6.3c-1.12 0-2.204-.467-2.975-1.281-.77-.813-1.176-1.922-1.114-3.041l2.699-48.569c.039-.694.435-1.318 1.046-1.648.61-.331 1.349-.321 1.951.027l7.787 4.496c.619.357 1 1.018 1 1.732v44.189c.001 2.258-1.836 4.095-4.094 4.095zm-3.875-49.422-2.519 45.322.095.1h6.3c.052 0 .095-.042.095-.095v-43.035z" fill="#3762cc"/></g><g><path d="m166.831 87.123c-.337 0-.675-.085-.979-.256-.63-.354-1.021-1.021-1.021-1.744v-35.27c0-1.104.896-2 2-2h20.104c1.104 0 2 .896 2 2v23.018c0 .698-.363 1.345-.959 1.708l-20.104 12.252c-.319.194-.68.292-1.041.292zm2-35.27v29.709l16.104-9.814v-19.895z" fill="#3762cc"/></g><g><path d="m171.107 62.332c-12.383 0-22.421-10.038-22.421-22.421v-9.551c0-12.383 10.038-22.421 22.421-22.421 12.383 0 22.421 10.038 22.421 22.421v9.551c0 12.383-10.039 22.421-22.421 22.421z" fill="#f9cfcf"/></g><g><path d="m171.106 64.332c-13.466 0-24.421-10.955-24.421-24.421v-9.551c0-13.466 10.955-24.421 24.421-24.421s24.421 10.956 24.421 24.421v9.551c0 13.466-10.955 24.421-24.421 24.421zm0-54.394c-11.26 0-20.421 9.161-20.421 20.421v9.551c0 11.26 9.161 20.421 20.421 20.421s20.421-9.161 20.421-20.421v-9.55c0-11.26-9.161-20.422-20.421-20.422z" fill="#3762cc"/></g><g><g><g><ellipse cx="182.197" cy="34.326" fill="#f9cfcf" rx="5.619" ry="7.311"/></g><g><path d="m182.197 43.637c-1.1 0-2.159-.277-3.151-.822-.968-.532-1.321-1.749-.788-2.716.531-.968 1.748-1.32 2.716-.789.395.217.807.327 1.224.327 1.962 0 3.619-2.432 3.619-5.311s-1.657-5.311-3.619-5.311c-1.146 0-1.966.824-2.353 1.315-.684.868-1.941 1.017-2.809.333s-1.018-1.941-.334-2.809c1.442-1.831 3.395-2.84 5.495-2.84 4.201 0 7.619 4.177 7.619 9.311s-3.418 9.312-7.619 9.312z" fill="#3762cc"/></g></g><g><path d="m162.338 37.159c1.817 0 3.291-1.473 3.291-3.291v-3.948c0-1.817-1.473-3.291-3.291-3.291-1.817 0-3.291 1.473-3.291 3.291v3.948c0 1.818 1.473 3.291 3.291 3.291z" fill="#3762cc"/></g><g><path d="m159.099 49.36h-3.29c-1.104 0-2-.896-2-2s.896-2 2-2h3.29c1.104 0 2 .896 2 2s-.896 2-2 2z" fill="#3762cc"/></g></g><g><path d="m131.669 107.678c-.688 0-1.356-.355-1.729-.991-.558-.954-.236-2.179.717-2.736l35.164-20.555 20.073-12.233c.944-.575 2.174-.276 2.749.667.574.943.276 2.174-.667 2.749l-20.104 12.252-35.195 20.573c-.318.186-.665.274-1.008.274z" fill="#3762cc"/></g></g></svg>