<svg id="Capa_1" enable-background="new 0 0 512 512" height="512" viewBox="0 0 512 512" width="512" xmlns="http://www.w3.org/2000/svg"><g id="XMLID_191_"><g id="XMLID_3317_"><path d="m87.341 185.322v80h46l.02-.058c4.319-12.437 2.049-29.558-6.031-39.953 0-22.085-17.904-39.989-39.989-39.989z" fill="#ffdcd5"/></g><g id="XMLID_3316_"><path id="XMLID_767_" d="m301.64 336.245 112.167 14.39c18.315 2.35 32.033 17.94 32.033 36.406 0 20.271-16.433 36.704-36.704 36.704h-159.963z" fill="#c193dc"/></g><g id="XMLID_3315_"><path id="XMLID_766_" d="m226.921 326.661c-15.446 0-28.999 8.105-36.642 20.291l-66.162 18.495c6.115-16.671 9.244-34.289 9.244-52.046v-48.137l-46.021.27-20.544 112.724c-4.316 23.681 13.875 45.487 37.946 45.487h98.08c29.263 0 56.478-15.022 72.073-39.784l26.744-47.716z" fill="#d1aee5"/></g><g id="XMLID_3314_"><path id="XMLID_765_" d="m301.64 336.245 17.917-49.433c10.451-28.834-.072-61.08-25.518-78.2l-38.168-25.679-28.95 37.066 15.737 46.469c7.249 21.406 1.062 45.074-15.737 60.193z" fill="#ff7d95"/></g><g id="XMLID_3313_"><path d="m293.149 144.071-2.8-11.669c-5.413-22.556-28.086-36.452-50.642-31.039-.032.008-.062.017-.094.025-5.736-9.844-17.43-15.213-29.078-12.418-14.231 3.415-23 17.721-19.584 31.952 2.147 8.947 8.599 15.732 16.63 18.69-.25 4.062.087 8.229 1.087 12.392l2.8 11.669c5.413 22.555 28.086 36.452 50.641 31.039 22.556-5.413 36.453-28.086 31.04-50.641z" fill="#ffdcd5"/></g><g id="XMLID_3310_"><path id="XMLID_230_" d="m239.707 101.363c-.032.008-.062.018-.094.025-5.736-9.844-17.43-15.213-29.078-12.418-14.231 3.416-23 17.721-19.584 31.953 2.147 8.947 8.599 15.731 16.63 18.69-.25 4.062.087 8.229 1.086 12.392l2.8 11.669c.361 1.502.803 2.963 1.312 4.386l24.663-5.919c3.157-12.82 13.203-22.807 26.041-25.888l17.847-4.283 7.9-3.395c-6.927-20.271-28.274-32.312-49.523-27.212z" fill="#a2bec1"/></g><g id="XMLID_3307_"><path d="m220.777 214.596-27.792-34.647-39.984 31.762c-7.686 6.105-18.791 5.199-25.385-2.072-6.699-7.386-6.394-18.736.692-25.752l41.153-40.747c12.746-12.62 33.272-12.638 46.04-.04l40.369 39.833c9.337 9.213 9.403 24.261.148 33.555-9.961 10.003-26.408 9.12-35.241-1.892z" fill="#ffdcd5"/></g><g id="XMLID_2271_"><path d="m322.912 383.745h-29.58c-20.429 0-36.99 16.561-36.99 36.99v3.01h66.57z" fill="#ffdcd5"/></g><g id="XMLID_768_"><path id="XMLID_775_" d="m502 413.745h-54.581c5.299-7.574 8.421-16.779 8.421-26.704 0-23.428-17.523-43.343-40.761-46.325-5.465-.695-10.488 3.168-11.191 8.646-.702 5.478 3.169 10.488 8.647 11.191 13.286 1.704 23.306 13.091 23.306 26.487 0 14.725-11.979 26.704-26.704 26.704h-76.224v-20h24.928c5.522 0 10-4.477 10-10s-4.478-10-10-10h-64.507c-.063 0-.126.005-.189.005l16.615-26.381 13.515 1.734c.432.055.86.082 1.285.082 4.956 0 9.259-3.683 9.906-8.729.702-5.478-3.169-10.488-8.646-11.191l-10.523-1.35 13.663-37.696c12.038-33.213-.026-70.184-29.338-89.904l-12.16-8.181c13.407-12.391 19.948-31.499 15.412-50.397l-2.8-11.668c-6.165-25.689-30.527-42.352-56.086-39.58-8.811-9.844-22.633-14.399-35.785-11.242-19.57 4.697-31.671 24.439-26.975 44.01.149.621.332 1.229.512 1.838-7.082 1.821-13.781 5.461-19.314 10.94l-41.153 40.747c-2.269 2.247-4.08 4.781-5.444 7.483-8.089-5.631-17.907-8.942-28.488-8.942-5.523 0-10 4.477-10 10v79.303l-20.382 111.84c-2.397 13.154.708 26.56 8.518 37.28h-55.477c-5.523 0-10 4.477-10 10s4.477 10 10 10h492c5.522 0 10-4.477 10-10s-4.478-10-10-10zm-191.845-130.341-16.766 46.258-48.011-9.532c10.546-16.702 13.296-37.543 6.751-56.869l-10.135-29.926c7.923-.652 15.436-4.092 21.109-9.79 4.829-4.849 7.995-10.905 9.229-17.484l16.124 10.848c21.68 14.585 30.603 41.929 21.699 66.495zm-166.794 29.997v-46.639c3.937-13.099 2.244-29.059-4.037-41.114 6.945.51 14.077-1.482 19.898-6.107l32.19-25.571 21.564 26.884c1.634 2.037 3.492 3.85 5.515 5.433l14.694 43.389c5.606 16.555 1.473 34.702-10.497 47.171-15.431 1.209-29.426 8.968-38.613 21.456l-45.137 12.618c2.939-12.259 4.423-24.818 4.423-37.52zm139.008-171.397 1.056 4.4c3.418 14.243-3.387 28.677-15.657 35.476-1.372-2.176-2.996-4.214-4.873-6.066l-14.71-14.515c2.996-7.634 9.505-13.373 17.634-15.324zm-69.5-43.31c7.023-1.687 14.47 1.491 18.104 7.728 2.233 3.833 6.725 5.739 11.031 4.676.039-.009.085-.021.134-.034 8.281-1.962 16.834-.594 24.094 3.856 3.557 2.18 6.59 4.975 9.001 8.229l-14.081 3.379c-11.8 2.832-21.677 10.135-27.859 20.076l-10.766-10.623c-5.318-5.247-11.705-8.8-18.472-10.678-1.62-1.938-2.781-4.223-3.378-6.715-2.125-8.846 3.345-17.771 12.192-19.894zm-77.525 92.299 41.153-40.748c8.81-8.723 23.155-8.735 31.981-.028l40.37 39.833c2.608 2.573 4.053 6.009 4.069 9.673s-1.399 7.112-3.984 9.708c-2.782 2.794-6.487 4.228-10.421 4.005-3.938-.211-7.466-2.021-9.934-5.098h.001l-27.792-34.648c-3.444-4.293-9.711-4.997-14.021-1.573l-39.984 31.762c-3.548 2.819-8.712 2.398-11.757-.959-3.113-3.429-2.972-8.668.319-11.927zm-38.003 6.043c11.635 4.126 19.989 15.243 19.989 28.275 0 2.223.741 4.382 2.105 6.137 4.575 5.886 6.775 15.382 5.903 23.874h-27.997zm7.402 216.709c-8.499 0-16.495-3.743-21.939-10.269s-7.693-15.064-6.169-23.425l19.086-104.728h27.64v38.079c0 16.635-2.904 32.987-8.632 48.602-1.293 3.523-.503 7.474 2.044 10.23 1.92 2.079 4.596 3.214 7.345 3.214.897 0 1.803-.121 2.692-.37l66.162-18.495c2.397-.67 4.458-2.209 5.78-4.317 5.977-9.53 16.146-15.298 27.324-15.578l59.353 11.783-18.994 30.16c-13.847 21.987-37.626 35.114-63.61 35.114zm162.517 0c3.087-11.505 13.606-20 26.073-20h19.579v20z"/><path id="XMLID_795_" d="m369.16 354.998c2.63 0 5.21-1.07 7.069-2.93 1.87-1.87 2.931-4.441 2.931-7.08 0-2.63-1.061-5.2-2.931-7.07-1.859-1.86-4.43-2.93-7.069-2.93-2.63 0-5.21 1.07-7.07 2.93s-2.93 4.44-2.93 7.07c0 2.64 1.069 5.21 2.93 7.08 1.86 1.86 4.44 2.93 7.07 2.93z"/></g></g></svg>